<?xml version="1.0" standalone="no"?>
<!DOCTYPE svg PUBLIC "-//W3C//DTD SVG 20010904//EN"
 "http://www.w3.org/TR/2001/REC-SVG-20010904/DTD/svg10.dtd">
<svg version="1.0" xmlns="http://www.w3.org/2000/svg"
 width="1024.000000pt" height="1024.000000pt" viewBox="0 0 1024.000000 1024.000000"
 preserveAspectRatio="xMidYMid meet">

<g transform="translate(0.000000,1024.000000) scale(0.100000,-0.100000)"
fill="#000000" stroke="none">
<path d="M1525 10205 c-772 -126 -1344 -688 -1497 -1470 l-22 -110 -4 -3425
c-2 -2393 0 -3463 8 -3550 42 -487 265 -919 635 -1228 235 -197 528 -335 838
-394 110 -21 136 -22 1205 -25 600 -2 1092 -1 1092 2 0 4 13 120 29 258 41
353 44 393 31 472 -14 90 -51 155 -121 216 -126 109 -236 275 -288 433 -61
186 -66 234 -65 641 1 204 6 528 13 720 52 1557 59 1703 82 1731 35 43 109 34
128 -14 9 -24 27 -551 47 -1367 5 -195 10 -268 21 -292 27 -60 116 -79 157
-34 25 27 34 109 46 396 6 143 22 489 35 769 22 446 27 512 43 540 35 60 109
60 144 0 16 -27 22 -105 48 -650 16 -340 32 -691 35 -779 10 -243 21 -284 87
-300 38 -10 93 20 111 58 11 26 19 195 36 835 14 520 26 811 33 827 21 45 93
52 127 11 19 -23 29 -174 51 -821 54 -1570 59 -1842 36 -2010 -39 -295 -125
-473 -323 -672 -110 -110 -130 -144 -144 -241 -11 -77 -8 -124 32 -469 16
-138 29 -254 29 -257 0 -3 419 -6 930 -6 663 0 930 3 930 11 0 6 14 126 31
267 23 192 29 287 27 377 -5 180 -8 184 -291 482 -185 195 -249 295 -320 499
-37 107 -69 251 -89 404 -19 148 -16 651 5 832 98 826 364 1442 692 1604 75
37 84 39 175 39 91 0 100 -2 175 -39 328 -162 594 -778 692 -1604 21 -181 24
-684 5 -832 -20 -153 -52 -297 -89 -404 -71 -204 -139 -310 -318 -496 -168
-174 -232 -252 -264 -320 -40 -85 -40 -221 -2 -542 17 -141 31 -261 31 -268 0
-8 270 -10 1043 -7 1017 3 1045 4 1154 25 811 155 1400 803 1473 1617 8 83 10
1169 7 3550 l-3 3430 -22 110 c-148 754 -689 1308 -1423 1457 l-114 23 -845
-5 c-1293 -7 -4434 -6 -5375 2 -717 7 -853 6 -930 -7z m6318 -2722 c324 -174
418 -229 414 -242 -3 -9 -95 -171 -204 -360 -198 -341 -200 -345 -242 -359
-55 -18 -146 -103 -177 -164 -51 -100 -52 -225 -2 -321 33 -65 103 -132 171
-163 53 -25 74 -29 147 -29 76 0 93 4 152 33 77 38 130 92 167 171 22 48 26
69 26 151 0 84 -3 101 -28 148 -34 66 -85 122 -131 147 -20 11 -36 22 -36 26
0 3 69 125 154 270 l153 264 382 3 c301 2 381 0 381 -10 0 -7 -9 -26 -20 -43
-26 -39 -25 -51 7 -97 28 -41 28 -43 -14 -110 -16 -25 -16 -27 12 -68 l29 -41
-29 -54 -30 -54 23 -30 c44 -61 43 -61 -179 -61 l-201 0 6 -22 c34 -120 40
-162 40 -283 0 -103 -5 -147 -22 -213 -82 -307 -304 -536 -607 -628 -81 -24
-106 -27 -240 -28 -123 0 -164 4 -228 22 -324 89 -572 358 -634 687 -23 122
-14 305 22 415 76 237 231 421 445 530 l44 23 -243 122 -244 122 44 29 c41 28
44 33 47 79 3 50 23 85 49 85 7 0 22 9 34 21 17 17 19 28 14 59 -7 43 5 61 63
92 30 16 32 21 32 69 0 45 2 50 18 44 9 -3 205 -108 435 -232z m-5863 161 c0
-38 38 -74 78 -74 39 0 72 -37 72 -80 0 -49 17 -69 70 -81 59 -13 80 -34 80
-78 0 -48 22 -78 63 -86 53 -11 67 -16 67 -25 0 -5 -175 -147 -390 -316 -214
-169 -390 -311 -390 -314 0 -4 180 -182 400 -396 220 -214 400 -391 400 -394
0 -3 -115 -117 -255 -253 l-254 -248 -509 495 c-297 289 -523 516 -542 546
-111 173 -89 412 52 572 18 20 258 209 533 418 453 346 500 380 512 364 7 -10
13 -32 13 -50z m3780 55 c0 -5 -11 -60 -25 -121 -14 -61 -25 -112 -25 -114 0
-2 45 -4 100 -4 55 0 100 -3 100 -7 0 -5 -9 -21 -20 -38 -25 -38 -25 -60 0
-92 11 -14 20 -37 20 -50 0 -14 -9 -36 -20 -50 -11 -14 -20 -33 -20 -43 0 -10
9 -29 20 -43 25 -32 25 -65 0 -97 -11 -14 -20 -34 -20 -45 0 -11 9 -31 20 -45
38 -48 32 -50 -142 -50 l-163 0 -58 -268 c-32 -147 -66 -304 -76 -349 -11 -46
-16 -83 -12 -83 3 0 19 21 36 48 47 74 154 174 231 214 88 46 157 66 255 74
l79 7 0 458 0 459 420 0 c231 0 420 -3 420 -7 0 -5 -10 -27 -22 -50 l-22 -41
29 -42 29 -41 -29 -53 -28 -52 26 -39 c15 -22 27 -44 27 -49 0 -6 -12 -28 -27
-49 l-27 -39 22 -39 c12 -21 22 -43 22 -48 0 -7 -50 -11 -145 -11 l-145 0 0
-180 0 -180 145 0 c95 0 145 -4 145 -11 0 -5 -10 -28 -22 -49 -19 -33 -21 -43
-11 -57 45 -64 46 -70 16 -122 l-27 -49 27 -39 c33 -48 33 -51 2 -93 -30 -41
-31 -57 -5 -90 37 -47 31 -50 -115 -50 l-135 0 0 -68 c0 -252 -183 -496 -430
-573 -356 -111 -748 140 -787 504 l-6 57 -298 0 c-265 0 -299 2 -299 16 0 8
45 221 100 472 56 251 104 469 107 485 l6 27 -112 0 -111 0 0 280 0 280 173 0
174 0 23 113 c13 61 25 118 28 125 6 16 582 18 582 1z m-3003 -28 c23 -11 55
-37 72 -58 130 -156 18 -390 -184 -387 -159 2 -268 151 -224 308 14 51 90 131
142 150 54 20 141 14 194 -13z m5979 -60 c85 -39 143 -144 131 -236 -8 -56
-27 -93 -69 -135 -43 -44 -91 -63 -158 -63 -68 0 -125 27 -173 84 -99 115 -55
293 88 355 44 19 133 17 181 -5z m582 3 c124 -51 176 -192 116 -313 -106 -211
-427 -136 -427 100 0 97 58 184 145 216 47 17 123 16 166 -3z m-4938 -51 c0
-5 -39 -147 -87 -316 -80 -281 -86 -310 -70 -318 9 -6 51 -37 92 -70 135 -107
248 -275 296 -441 29 -103 37 -279 15 -381 -71 -343 -335 -607 -704 -704 -133
-35 -346 -37 -467 -4 -232 62 -397 215 -450 416 -46 179 13 395 144 525 112
111 230 155 411 152 219 -2 398 -82 490 -219 l32 -48 -4 46 c-21 201 -229 345
-508 352 -53 1 -90 6 -90 12 0 6 32 105 70 220 39 115 70 213 70 218 0 4 -129
7 -287 7 -159 0 -292 -1 -296 0 -4 0 4 20 18 44 25 42 25 46 11 75 -9 16 -20
33 -26 36 -18 11 -11 48 16 86 24 35 25 39 10 67 -9 17 -20 34 -26 37 -16 10
-12 51 6 66 31 26 36 59 14 96 -11 19 -20 38 -20 44 0 11 1340 13 1340 2z
m-1614 -518 c209 -123 122 -441 -121 -440 -200 2 -307 234 -177 385 77 91 198
113 298 55z"/>
<path d="M5948 6100 c-145 -44 -174 -243 -46 -327 33 -22 53 -28 98 -28 210 0
247 298 44 354 -44 12 -58 13 -96 1z"/>
<path d="M3485 6066 c-74 -32 -124 -128 -106 -206 34 -152 233 -201 334 -81
23 28 47 86 47 116 0 60 -60 148 -117 171 -41 17 -119 17 -158 0z"/>
<path d="M6994 2373 c-71 -328 -298 -840 -491 -1105 -19 -27 -30 -48 -25 -48
27 0 167 107 237 182 185 196 279 461 292 826 6 161 1 209 -13 145z"/>
</g>
</svg>
